<?xml version="1.0" standalone="no"?>
<svg viewBox="0 0 200 200" xmlns="http://www.w3.org/2000/svg">
  <path fill="#FBEEAC" d="M37.1,-54.1C41.5,-47.8,34.1,-28.2,30.8,-15.4C27.5,-2.6,28.4,3.5,32.8,17.1C37.3,30.8,45.3,52,40.4,61.9C35.5,71.8,17.8,70.3,2.8,66.4C-12.1,62.6,-24.2,56.3,-37.1,49C-50,41.7,-63.7,33.4,-67.8,21.8C-71.9,10.2,-66.3,-4.8,-60.5,-18.7C-54.7,-32.7,-48.7,-45.7,-38.6,-50.2C-28.5,-54.6,-14.2,-50.4,1.1,-51.9C16.3,-53.3,32.7,-60.4,37.1,-54.1Z" transform="translate(100 100)" />
</svg>
